<svg width="106" height="121" viewBox="0 0 106 121" fill="none" xmlns="http://www.w3.org/2000/svg">
<g clip-path="url(#clip0_1854_19083)">
<path d="M30.4609 32.7734C30.4609 27.5937 26.2656 23.3984 21.0859 23.3984H9.83594C4.65625 23.3984 0.460938 27.5937 0.460938 32.7734V44.0234C0.460938 49.2031 4.65625 53.3984 9.83594 53.3984H21.0859C26.2656 53.3984 30.4609 49.2031 30.4609 44.0234V32.7734ZM30.4609 77.7734C30.4609 72.5937 26.2656 68.3984 21.0859 68.3984H9.83594C4.65625 68.3984 0.460938 72.5937 0.460938 77.7734V89.0234C0.460938 94.2031 4.65625 98.3984 9.83594 98.3984H21.0859C26.2656 98.3984 30.4609 94.2031 30.4609 89.0234V77.7734ZM37.9609 32.7734V44.0234C37.9609 49.2031 42.1563 53.3984 47.3359 53.3984H58.5859C63.7656 53.3984 67.9609 49.2031 67.9609 44.0234V32.7734C67.9609 27.5937 63.7656 23.3984 58.5859 23.3984H47.3359C42.1563 23.3984 37.9609 27.5937 37.9609 32.7734ZM67.9609 77.7734C67.9609 72.5937 63.7656 68.3984 58.5859 68.3984H47.3359C42.1563 68.3984 37.9609 72.5937 37.9609 77.7734V89.0234C37.9609 94.2031 42.1563 98.3984 47.3359 98.3984H58.5859C63.7656 98.3984 67.9609 94.2031 67.9609 89.0234V77.7734ZM75.4609 32.7734V44.0234C75.4609 49.2031 79.6563 53.3984 84.8359 53.3984H96.0859C101.266 53.3984 105.461 49.2031 105.461 44.0234V32.7734C105.461 27.5937 101.266 23.3984 96.0859 23.3984H84.8359C79.6563 23.3984 75.4609 27.5937 75.4609 32.7734ZM105.461 77.7734C105.461 72.5937 101.266 68.3984 96.0859 68.3984H84.8359C79.6563 68.3984 75.4609 72.5937 75.4609 77.7734V89.0234C75.4609 94.2031 79.6563 98.3984 84.8359 98.3984H96.0859C101.266 98.3984 105.461 94.2031 105.461 89.0234V77.7734Z" fill="#FF5314"/>
</g>
<defs>
<clipPath id="clip0_1854_19083">
<rect width="105" height="120" fill="white" transform="translate(0.460938 0.898438)"/>
</clipPath>
</defs>
</svg>
