<svg width="106" height="121" viewBox="0 0 106 121" fill="none" xmlns="http://www.w3.org/2000/svg">
<g clip-path="url(#clip0_1854_19075)">
<path d="M37.8929 15.5C37.8929 13.4375 39.5804 11.75 41.6429 11.75C43.7054 11.75 45.3929 13.4375 45.3929 15.5V47.375C45.3929 49.7891 46.9398 51.9453 49.2367 52.7188C51.5336 53.4922 54.0648 52.6953 55.5179 50.7734C56.2211 49.8594 57.2992 49.2734 58.5179 49.2734C60.5804 49.2734 62.2679 50.9609 62.2679 53.0234C62.2679 55.4375 63.8148 57.5938 66.1117 58.3672C68.4086 59.1406 70.9398 58.3438 72.3929 56.4219C73.0961 55.5078 74.1742 54.9219 75.3929 54.9219C77.2211 54.9219 78.7445 56.2344 79.0726 57.9688C79.4476 59.8906 80.7836 61.5078 82.6117 62.1875C84.4398 62.8672 86.5257 62.5625 88.0726 61.3438C88.7054 60.8516 89.5023 60.5469 90.3929 60.5469C92.4554 60.5469 94.1429 62.2344 94.1429 64.2969V68.0469V92.375C94.1429 101.703 86.5961 109.25 77.2679 109.25H64.1429H50.1507H49.9398C41.1742 109.25 32.9711 104.867 28.0961 97.5547L12.2757 73.8359C11.1273 72.1016 11.5961 69.7812 13.307 68.6328C15.0179 67.4844 17.3617 67.9531 18.5101 69.6641L27.5804 83.2812C28.9632 85.3438 31.5179 86.2578 33.8851 85.5547C36.2523 84.8516 37.8695 82.6484 37.8695 80.1641V75.5L37.8695 15.5H37.8929ZM41.6429 0.5C33.3695 0.5 26.6429 7.22656 26.6429 15.5L26.6429 61.8359C21.7679 56.2813 13.4007 55.0625 7.07262 59.2578C0.181996 63.875 -1.693 73.1797 2.92418 80.0703L18.7445 103.812C25.7054 114.242 37.4007 120.5 49.9398 120.5H50.1507H64.1429H77.2679C92.807 120.5 105.393 107.914 105.393 92.375V68V64.25C105.393 55.9766 98.6664 49.25 90.3929 49.25C89.3382 49.25 88.3304 49.3672 87.3461 49.5547C84.6039 45.9453 80.2679 43.625 75.3929 43.625C73.7757 43.625 72.2289 43.8828 70.7757 44.3516C68.057 40.5078 63.5804 38 58.5179 38C57.8851 38 57.2523 38.0469 56.6429 38.1172V15.5C56.6429 7.22656 49.9164 0.5 41.6429 0.5ZM52.8929 71.75C52.8929 69.6875 51.2054 68 49.1429 68C47.0804 68 45.3929 69.6875 45.3929 71.75V94.25C45.3929 96.3125 47.0804 98 49.1429 98C51.2054 98 52.8929 96.3125 52.8929 94.25V71.75ZM64.1429 68C62.0804 68 60.3929 69.6875 60.3929 71.75V94.25C60.3929 96.3125 62.0804 98 64.1429 98C66.2054 98 67.8929 96.3125 67.8929 94.25V71.75C67.8929 69.6875 66.2054 68 64.1429 68ZM82.8929 71.75C82.8929 69.6875 81.2054 68 79.1429 68C77.0804 68 75.3929 69.6875 75.3929 71.75V94.25C75.3929 96.3125 77.0804 98 79.1429 98C81.2054 98 82.8929 96.3125 82.8929 94.25V71.75Z" fill="#FF5314"/>
</g>
<defs>
<clipPath id="clip0_1854_19075">
<rect width="105" height="120" fill="white" transform="translate(0.392578 0.5)"/>
</clipPath>
</defs>
</svg>
